<svg width="24" height="24" viewBox="0 0 24 24" fill="none" xmlns="http://www.w3.org/2000/svg">
<path fill-rule="evenodd" clip-rule="evenodd" d="M16.71 1.37703C16.7053 1.26895 16.6773 1.16315 16.6279 1.06692C16.5785 0.970677 16.5088 0.88627 16.4237 0.819487C16.3386 0.752705 16.24 0.705128 16.1348 0.680021C16.0295 0.654914 15.9201 0.652872 15.814 0.674034C15.314 0.774034 13.682 1.18003 12.394 2.46803C11.736 3.12603 11.372 3.95603 11.174 4.71203C11.079 5.08014 11.0141 5.45539 10.98 5.83403L10.737 5.73003C10.044 5.43403 9.14701 5.09003 8.12701 5.09003C7.03501 5.09003 5.48501 5.53403 4.20501 6.79003C2.90701 8.06403 1.95001 10.108 1.95001 13.19C1.95001 14.922 2.81601 17.44 3.98301 19.485C4.57301 20.518 5.26801 21.48 6.01801 22.189C6.74701 22.877 7.63501 23.427 8.60301 23.402C9.32301 23.399 10.053 23.116 10.62 22.896L10.67 22.876C11.324 22.623 11.79 22.452 12.181 22.452C12.555 22.452 13.025 22.623 13.689 22.878L13.738 22.896C14.314 23.117 15.057 23.402 15.77 23.402C16.309 23.402 16.932 23.114 17.478 22.775C18.1343 22.3576 18.7373 21.862 19.274 21.299C20.411 20.117 21.491 18.428 21.449 16.62C21.4458 16.4812 21.4041 16.346 21.3285 16.2294C21.2529 16.1129 21.1465 16.0196 21.021 15.96C20.4921 15.6917 20.0201 15.3236 19.631 14.876C19.158 14.333 18.809 13.664 18.787 12.888C18.7631 11.9088 18.9987 10.9407 19.47 10.082C19.892 9.31203 20.37 8.87203 20.592 8.75503C20.6869 8.70527 20.77 8.63574 20.8358 8.55115C20.9015 8.46656 20.9484 8.36886 20.9732 8.26463C20.9981 8.1604 21.0003 8.05206 20.9797 7.94691C20.9591 7.84176 20.9163 7.74223 20.854 7.65503C20.512 7.17503 19.862 6.54303 19.096 6.03403C18.339 5.53003 17.352 5.06903 16.342 5.08903C16.1653 5.0937 15.992 5.10603 15.822 5.12603C16.192 4.57603 16.408 3.89403 16.534 3.29603C16.6682 2.66555 16.7276 2.02143 16.711 1.37703M13.456 3.52803C13.997 2.98703 14.633 2.64503 15.16 2.43403C15.1364 2.61954 15.1054 2.80402 15.067 2.98703C14.936 3.60903 14.73 4.12903 14.477 4.42503C13.997 4.98403 13.353 5.59403 12.489 5.83503C12.517 5.59803 12.561 5.34503 12.627 5.09103C12.782 4.49603 13.047 3.93803 13.456 3.52803ZM16.373 6.58803C16.938 6.57803 17.615 6.84903 18.267 7.28303C18.611 7.51103 18.915 7.76303 19.157 7.99503C18.8 8.35303 18.449 8.82503 18.156 9.36103C17.5566 10.4535 17.2574 11.6853 17.289 12.931C17.323 14.151 17.873 15.141 18.501 15.861C18.961 16.388 19.481 16.795 19.931 17.071C19.804 18.166 19.107 19.311 18.194 20.259C17.7443 20.733 17.2382 21.1501 16.687 21.501C16.179 21.817 15.863 21.902 15.771 21.902C15.371 21.902 14.883 21.728 14.227 21.477L14.147 21.447C13.583 21.23 12.861 20.953 12.182 20.953C11.482 20.953 10.764 21.232 10.202 21.45L10.13 21.478C9.48201 21.728 9.00301 21.902 8.59301 21.902H8.57001C8.19401 21.914 7.67601 21.69 7.05001 21.099C6.44201 20.524 5.83301 19.696 5.28701 18.741C4.18301 16.807 3.45101 14.554 3.45101 13.191C3.45101 10.434 4.29601 8.80303 5.25601 7.86103C6.23401 6.90103 7.39701 6.58903 8.12901 6.58903C8.82401 6.58903 9.48201 6.82403 10.149 7.10903L10.419 7.22603C10.657 7.32903 10.904 7.43603 11.128 7.52103C11.44 7.63803 11.807 7.75003 12.182 7.75003C12.557 7.75003 12.928 7.64503 13.252 7.53003C13.493 7.44503 13.757 7.33603 14.012 7.23103L14.264 7.12703C14.957 6.84503 15.646 6.60403 16.373 6.58903" fill="white"/>
</svg>
