<svg width="21" height="20" viewBox="0 0 21 20" fill="none" xmlns="http://www.w3.org/2000/svg">
<path d="M2.61662 3.92499L3.20828 3.33333L17.1666 17.2917L16.575 17.8833L13.7916 15.0917C12.65 15.5667 11.4 15.8333 10.0833 15.8333C6.28328 15.8333 2.99995 13.625 1.44995 10.4167C2.25828 8.74999 3.52495 7.35833 5.08328 6.39999L2.61662 3.92499ZM10.0833 15C11.1583 15 12.1916 14.8083 13.1416 14.45L12.2083 13.5083C11.6 13.925 10.875 14.1667 10.0833 14.1667C7.99995 14.1667 6.33328 12.5 6.33328 10.4167C6.33328 9.62499 6.57495 8.89999 6.99162 8.29166L5.69995 7.00833C4.30466 7.82122 3.15785 8.99973 2.38328 10.4167C3.86662 13.15 6.74995 15 10.0833 15ZM17.7833 10.4167C16.3 7.68333 13.4166 5.83333 10.0833 5.83333C9.12495 5.83333 8.19162 5.99166 7.32495 6.275L6.67495 5.62499C7.73328 5.21666 8.88328 4.99999 10.0833 4.99999C13.8833 4.99999 17.1666 7.20833 18.7166 10.4167C17.9593 11.9882 16.7864 13.3225 15.325 14.275L14.725 13.6667C16 12.8667 17.0583 11.75 17.7833 10.4167ZM10.0833 6.66666C12.1666 6.66666 13.8333 8.33333 13.8333 10.4167C13.8333 11.1 13.65 11.7333 13.3333 12.2833L12.7166 11.6667C12.9 11.2833 13 10.8667 13 10.4167C13 9.64311 12.6927 8.90125 12.1457 8.35427C11.5987 7.80729 10.8568 7.49999 10.0833 7.49999C9.63328 7.49999 9.21662 7.6 8.83328 7.78333L8.21662 7.16666C8.76662 6.85 9.39995 6.66666 10.0833 6.66666ZM7.16662 10.4167C7.16662 11.1902 7.47391 11.9321 8.02089 12.4791C8.56787 13.026 9.30974 13.3333 10.0833 13.3333C10.6416 13.3333 11.1583 13.175 11.6 12.9167L7.58328 8.89999C7.32495 9.34166 7.16662 9.85833 7.16662 10.4167Z" fill="#E03F3F"/>
</svg>
